<svg height="512pt" viewBox="0 0 512 512" width="512pt" fill="#FFFFFF" xmlns="http://www.w3.org/2000/svg"><path d="m464.660156 139.710938h19.351563c-35.265625-68.949219-100.800781-119.914063-179.09375-134.933594-.234375 2.050781-.917969 3.863281-2.046875 5.699218l-5.910156 10.238282-68.714844 119.019531h236.414062zm0 0"/><path d="m22.761719 338.15625h146.328125l-42.328125-73.730469-75.796875-131.070312-9.769532-16.621094c-25.941406 40.042969-41.195312 88.066406-41.195312 139.265625 0 29.589844 5.011719 58.027344 14.335938 84.414062 2.496093-1.363281 5.460937-2.257812 8.425781-2.257812zm0 0"/><path d="m47.339844 372.289062h-19.351563c35.5 69.394532 101.484375 120.382813 180.226563 135.167969 0-2.730469.679687-5.695312 2.28125-8.425781l4.332031-7.746094h.234375l68.5-119.019531h-236.222656zm0 0"/><path d="m72.8125 102.847656 68.734375 119.019532 41.40625-71.679688 1.601563-2.964844 75.09375-130.15625 9.558593-16.832031c-4.332031-.234375-8.875-.234375-13.207031-.234375-77.375 0-147.007812 34.367188-193.644531 88.980469 2.261719 1.578125 4.3125 3.628906 5.910156 6.144531zm0 0"/><path d="m449.878906 422.804688c-2.496094-1.128907-4.546875-3.179688-6.144531-5.910157l-4.546875-7.742187-68.710938-119.230469-41.410156 71.914063-2.046875 3.859374-74.667969 129.238282-9.792968 16.832031c4.566406 0 8.898437.234375 13.441406.234375 77.589844 0 147.007812-34.582031 193.878906-89.195312zm0 0"/><path d="m489.238281 173.84375h-146.328125l42.328125 73.730469 75.773438 131.070312 9.792969 16.621094c25.941406-40.042969 41.195312-88.066406 41.195312-139.265625 0-29.589844-5.011719-58.027344-14.335938-84.414062-2.496093 1.363281-5.460937 2.257812-8.425781 2.257812zm0 0"/></svg>