<?xml version="1.0" encoding="UTF-8" standalone="no"?>
<!DOCTYPE svg PUBLIC "-//W3C//DTD SVG 1.0//EN"
"http://www.w3.org/TR/2001/REC-SVG-20010904/DTD/svg10.dtd">
<!-- 
	Created with Inkscape (http://www.inkscape.org/).

	This document is licensed under the GFDL license. 
	
	Copyright 2005-2006
		Swantje Hess <http://red20.deviantart.com>
		Jannis Pohlmann <http://sten-net.de>
-->
<svg
   sodipodi:version="0.32"
   inkscape:version="0.39"
   xmlns="http://www.w3.org/2000/svg"
   xmlns:sodipodi="http://sodipodi.sourceforge.net/DTD/sodipodi-0.dtd"
   xmlns:inkscape="http://www.inkscape.org/namespaces/inkscape"
   xmlns:xlink="http://www.w3.org/1999/xlink"
   xmlns:rdf="http://www.w3.org/1999/02/22-rdf-syntax-ns#"
   xmlns:cc="http://web.resource.org/cc/"
   xmlns:dc="http://purl.org/dc/elements/1.1/"
   width="500" height="774" viewBox="120 84 500 774"
   sodipodi:docbase="/home/jannis/Grafik"
   sodipodi:docname="böser-pinguin.svg">
  <defs
     id="defs7225">
    <linearGradient
       id="linearGradient1552">
      <stop
         style="stop-color:#c1c4ff;stop-opacity:1.0000000;"
         offset="0.0000000"
         id="stop1553" />
      <stop
         style="stop-color:#fff;stop-opacity:1;"
         offset="1"
         id="stop1554" />
    </linearGradient>
    <linearGradient
       inkscape:collect="always"
       xlink:href="#linearGradient1552"
       id="linearGradient1555"
       x1="-0.28888890"
       y1="0.52343750"
       x2="0.40000001"
       y2="0.51562500" />
    <linearGradient
       id="linearGradient6597">
      <stop
         style="stop-color:#787878;stop-opacity:1.0000000;"
         offset="0.0000000"
         id="stop6598" />
      <stop
         style="stop-color:#dcdcdc;stop-opacity:1.0000000;"
         offset="1.0000000"
         id="stop6599" />
    </linearGradient>
    <linearGradient
       inkscape:collect="always"
       xlink:href="#linearGradient6597"
       id="linearGradient7222"
       x1="0.88888890"
       y1="0.42968750"
       x2="-0.73015875"
       y2="0.44531250"
       spreadMethod="reflect" />
  </defs>
  <sodipodi:namedview
     id="base"
     pagecolor="#ffffff"
     bordercolor="#666666"
     borderopacity="1.0"
     inkscape:pageopacity="0.0"
     inkscape:pageshadow="2"
     inkscape:zoom="1.2279853"
     inkscape:cx="227.99419"
     inkscape:cy="606.48350"
     inkscape:window-width="1018"
     inkscape:window-height="712"
     inkscape:window-x="0"
     inkscape:window-y="30" />
  <metadata
     id="metadata7226">
    <rdf:RDF
       id="RDF7227">
      <cc:Work
         rdf:about=""
         id="Work7228">
        <dc:format
           id="format7229">image/svg+xml</dc:format>
        <dc:type
           id="type7231"
           rdf:resource="http://purl.org/dc/dcmitype/StillImage" />
      </cc:Work>
    </rdf:RDF>
  </metadata>
  <path
     id="path13371"
     style="fill:#000000;fill-opacity:1.0000000;fill-rule:evenodd;stroke:none;stroke-width:1.3750000;stroke-linecap:butt;stroke-linejoin:miter;stroke-miterlimit:4.0000000;stroke-opacity:1.0000000;"
     d="M 404.70973,840.50601 C 405.25003,848.77863 413.66262,852.72149 420.10714,842.69104 C 428.00570,830.80721 435.31385,823.05634 445.57410,812.35336 C 455.47586,804.59089 462.24744,802.52272 471.73687,802.05524 C 508.62220,800.23815 539.23922,804.90845 572.99040,805.09296 C 588.51655,804.87421 591.20775,792.44156 572.99040,775.86859 C 562.58272,768.10485 553.83116,760.34110 545.49363,751.95631 C 531.93933,732.22344 528.52880,713.52566 526.56737,694.62087 C 523.62692,667.74427 520.68648,640.03962 519.60918,615.85422 C 518.49587,594.23746 518.41764,573.24175 516.26926,551.00394 C 511.64501,510.60765 506.39972,494.01813 499.29129,465.83576 C 493.07439,436.10957 482.38916,407.27647 469.37109,379.97176 C 456.23622,352.42208 451.02976,329.17904 441.12086,307.46747 C 429.01582,280.94390 408.61926,268.59368 386.09356,267.08612 C 378.50134,266.57800 373.60535,267.29391 368.00285,268.27480 C 309.28894,278.55451 307.19680,297.74146 274.64907,311.93505 C 253.93560,320.96789 227.04526,330.64377 207.96307,336.22236 C 198.52365,339.10397 194.03133,351.96441 207.96307,353.76723 C 216.16339,354.46649 221.88455,354.78432 226.27076,354.14864 C 233.83540,354.97503 234.72536,353.89437 238.85730,356.81851 C 254.36798,364.82813 263.20398,369.97716 280.04960,383.32653 C 291.36477,392.35323 306.34549,412.06411 307.12973,437.29607 C 307.80757,459.10471 305.94945,470.59259 285.00794,487.26081 C 270.86374,498.51877 248.97084,504.00180 236.75955,497.74960 C 231.63523,495.12593 227.35142,491.64703 227.60569,485.92588 C 253.28732,481.98464 246.76803,434.26469 212.53999,444.16146 C 180.02287,453.56353 195.37653,500.10163 199.95345,513.19671 C 215.71841,541.54820 239.87439,547.96861 265.55602,553.62619 C 283.86371,555.46967 303.61491,553.75101 309.65623,549.87472 C 310.45293,592.66552 307.31639,635.50022 307.61973,678.68977 C 307.81798,706.91627 312.78408,729.74306 326.65405,746.85919 C 312.78409,751.28578 301.57006,755.26970 289.47073,760.13895 C 274.27278,767.22148 279.43713,775.63200 290.35604,776.07466 C 293.30710,776.07466 296.25816,776.07466 299.20922,776.07466 C 303.15107,776.13750 306.71144,775.19156 303.63580,782.71454 C 299.61256,791.56550 304.12275,793.77934 312.04632,793.33834 C 316.19801,791.61090 318.64301,792.53829 319.00207,795.93090 C 321.78591,803.43257 328.93129,804.10749 336.83520,800.42088 C 347.35409,792.72792 359.57965,788.44834 371.80523,783.59986 C 374.73552,785.49673 379.75177,786.06618 384.00948,786.82525 C 376.54713,796.22546 366.99882,802.21228 357.64015,808.38874 C 349.31876,815.19638 353.32346,823.90034 367.37864,822.55381 C 370.47725,822.25871 373.57586,821.96360 376.67447,821.66850 C 380.57313,821.28978 382.38585,821.10071 381.54372,825.65242 C 379.39658,837.98015 382.93841,844.99820 396.15145,837.60421 C 400.51409,834.27555 404.51899,834.35308 404.70973,840.50601 z "
     sodipodi:nodetypes="cccscccccccssssccccccccccccccccccccccccccccccc" />
  <path
     style="fill:url(#linearGradient1555);fill-opacity:0.75000000;fill-rule:evenodd;stroke:#000000;stroke-width:1.0000000pt;stroke-linecap:butt;stroke-linejoin:miter;stroke-opacity:1.0000000;"
     d="M 335.16895,432.91933 C 304.63096,435.62476 320.78059,480.53226 317.86419,510.28182 C 313.05057,559.38460 315.20749,612.91112 313.65987,656.86339 C 311.81439,709.27493 315.48902,753.90581 360.61714,757.63821 C 386.74394,765.10301 412.46311,771.79909 422.71072,747.45894 C 446.33770,691.34003 392.51221,629.71865 378.93984,567.28576 C 364.34954,522.49695 373.70521,429.50532 335.16895,432.91933 z "
     id="path930"
     sodipodi:nodetypes="csscscs" />
  <path
     style="fill:#c8c8c8;fill-opacity:1.0000000;fill-rule:evenodd;stroke:none;stroke-width:1.0000000pt;stroke-linecap:butt;stroke-linejoin:miter;stroke-opacity:1.0000000;"
     d="M 392.95687,438.38548 C 387.04293,439.44999 392.42265,519.40908 411.67124,587.38065 C 430.86547,655.16026 456.05788,696.54781 480.05066,723.41972 C 485.80893,727.97835 516.75962,745.49308 508.12222,700.38665 C 491.80713,654.08059 485.56902,630.56766 475.73197,582.34217 C 465.89493,534.11668 466.13486,441.74447 459.89673,439.10526 C 454.85825,439.82504 465.68962,562.33665 470.69348,583.78174 C 475.73196,605.37524 486.52871,655.04030 503.08373,698.22730 C 513.40063,740.93446 484.00017,723.96581 475.01218,711.18341 C 436.47203,656.37300 423.41401,610.48883 417.42951,587.38066 C 389.10894,478.02543 398.95507,437.30580 392.95687,438.38548 z "
     id="path1557"
     sodipodi:nodetypes="czcczczcssz" />
  <path
     style="fill:#ffffff;fill-opacity:1.0000000;fill-rule:evenodd;stroke:none;stroke-width:1.0000000pt;stroke-linecap:butt;stroke-linejoin:miter;stroke-opacity:1.0000000;"
     d="M 333.20434,325.37948 C 342.49760,321.44169 345.81106,320.46096 352.64900,318.18165 C 350.44236,337.75590 386.16533,330.29362 371.74952,312.76750 C 378.46750,310.84808 385.73364,308.63094 391.51730,307.38489 C 390.91748,311.10377 379.76084,331.01778 369.92380,334.01688 C 360.08676,337.01598 336.32340,327.89872 333.20434,325.37948 z "
     id="path2180"
     sodipodi:nodetypes="cccczc" />
  <path
     style="fill:#5a5a5a;fill-opacity:1.0000000;fill-rule:evenodd;stroke:none;stroke-width:1.0000000pt;stroke-linecap:butt;stroke-linejoin:miter;stroke-opacity:1.0000000;"
     d="M 332.41238,315.81123 C 325.39091,317.73377 326.39398,314.89175 330.90778,313.30356 C 359.24443,300.68163 366.76743,299.34421 382.81651,295.74989 C 389.00209,294.57964 389.42003,300.68163 382.56574,299.76215 C 378.13553,299.09344 351.88860,307.20156 332.41238,315.81123 z "
     id="path2181"
     sodipodi:nodetypes="ccccc" />
  <path
     style="fill:#ffb500;fill-opacity:1.0000000;fill-rule:evenodd;stroke:none;stroke-width:0.25000000;stroke-linecap:butt;stroke-linejoin:miter;stroke-miterlimit:4.0000000;stroke-opacity:1.0000000;"
     d="M 212.13746,341.85182 C 208.61006,341.91481 197.71293,347.64682 213.27127,347.70981 C 258.74947,345.75715 280.07131,347.58383 302.46397,351.67813 C 324.85663,355.77243 327.34471,364.77988 320.60486,352.43400 C 311.53442,340.84399 308.88887,323.20701 293.01559,320.30951 C 284.57504,319.55364 280.66971,317.09706 268.82774,321.82125 C 249.61604,328.56109 241.55342,333.97817 212.13746,341.85182 z "
     id="path3425"
     sodipodi:nodetypes="cczcccc" />
  <path
     style="fill:#000000;fill-opacity:1.0000000;fill-rule:evenodd;stroke:#000000;stroke-width:0.25000000;stroke-linecap:butt;stroke-linejoin:miter;stroke-miterlimit:4.0000000;stroke-opacity:1.0000000;"
     d="M 252.57653,339.20627 C 246.15163,340.59203 245.56357,334.20063 250.49788,333.15931 C 255.25113,332.15620 259.56832,330.95469 263.91458,330.51376 C 268.44792,330.05386 268.26084,333.60023 266.37116,335.04898 C 264.48148,336.49773 258.82098,337.85943 252.57653,339.20627 z "
     id="path4668"
     sodipodi:nodetypes="czzzz" />
  <path
     style="fill:#ffb500;fill-opacity:1.0000000;fill-rule:evenodd;stroke:none;stroke-width:0.12500000;stroke-linecap:butt;stroke-linejoin:miter;stroke-miterlimit:4.0000000;stroke-opacity:1.0000000;"
     d="M 247.80695,354.91072 C 267.80545,353.52998 305.75361,359.40927 315.81967,363.32880 C 321.96620,366.22390 322.50068,366.17937 315.68604,370.27705 C 307.80245,374.64198 300.45333,375.39916 288.42751,383.63908 C 275.46634,371.03423 264.91034,365.11040 247.80695,354.91072 z "
     id="path7153"
     sodipodi:nodetypes="ccccc" />
  <path
     style="fill:#ffb500;fill-opacity:1.0000000;fill-rule:evenodd;stroke:none;stroke-width:0.12500000;stroke-linecap:butt;stroke-linejoin:miter;stroke-miterlimit:4.0000000;stroke-opacity:1.0000000;"
     d="M 329.65016,752.17117 C 316.29457,754.75250 302.59914,759.93928 290.26308,765.01279 C 285.71821,767.22071 285.81787,771.35442 293.28076,770.61704 C 297.93419,770.39048 299.75559,770.95688 303.50277,770.84360 C 310.95202,771.49340 310.81147,774.63536 310.44435,778.00389 C 310.31744,782.85609 304.18665,789.97389 313.80188,787.34955 C 318.57960,785.65611 321.77138,788.15405 322.81084,790.87856 C 325.25948,798.20615 328.72766,797.15095 334.23488,795.18952 C 348.23921,785.77253 354.76702,784.51176 364.01355,780.53225 C 344.51615,770.85200 340.08510,765.24984 329.65016,752.17117 z "
     id="path10260"
     sodipodi:nodetypes="cccccccccc" />
  <path
     style="fill:#ffb500;fill-opacity:1.0000000;fill-rule:evenodd;stroke:none;stroke-width:0.12500000;stroke-linecap:butt;stroke-linejoin:miter;stroke-miterlimit:4.0000000;stroke-opacity:1.0000000;"
     d="M 402.79530,783.60809 C 387.21273,791.97047 379.70698,800.69998 364.49154,810.53087 C 358.00560,813.42711 355.68045,818.15899 364.49154,817.01681 C 369.10104,816.36414 374.68956,816.93522 381.50184,816.40493 C 385.13233,816.24177 387.90620,816.81284 387.25352,820.93285 C 386.64164,824.64492 386.39688,827.86751 386.51926,830.84533 C 386.19293,836.10750 390.02737,835.37325 392.51569,833.90473 C 395.45273,831.86513 398.63451,830.43741 400.71491,829.86632 C 402.91768,829.09127 404.63095,828.92810 405.48758,830.47820 C 408.05748,833.29286 409.03649,836.47463 409.52600,839.65642 C 410.62738,844.26593 412.58541,843.36850 415.03293,840.63543 C 425.63887,824.48177 436.61195,813.71266 451.86818,799.27226 C 438.28442,786.38196 422.25313,786.70829 415.52243,786.54512 C 412.34065,786.05562 410.01549,786.66749 402.79530,783.60809 z "
     id="path12128"
     sodipodi:nodetypes="cccccccccccccc" />
  <path
     sodipodi:type="arc"
     style="fill:#ffffff;fill-opacity:1.0000000;fill-rule:evenodd;stroke:none;stroke-width:1.0000000pt;stroke-linecap:butt;stroke-linejoin:miter;stroke-opacity:1.0000000;"
     id="path2803"
     sodipodi:cx="422.41669"
     sodipodi:cy="251.41298"
     sodipodi:rx="3.1345851"
     sodipodi:ry="3.2599685"
     d="M 425.55127 251.41298 A 3.1345851 3.2599685 0 1 0 419.28210,251.41298 A 3.1345851 3.2599685 0 1 0 425.55127 251.41298 z"
     transform="matrix(0.640000,0.000000,0.000000,0.653846,92.15778,155.0619)" />
  <path
     style="fill:#000000;fill-opacity:1.0000000;fill-rule:evenodd;stroke:#000000;stroke-width:1.0000000pt;stroke-linecap:butt;stroke-linejoin:miter;stroke-opacity:1.0000000;"
     d="M 232.40058,389.72072 L 234.58808,408.78322 L 240.21308,389.72072 L 232.40058,389.72072 z M 172.08808,396.90822 L 166.46308,400.65822 L 186.46308,414.40822 L 172.08808,396.90822 z M 280.83808,444.72072 L 264.27558,448.78322 L 280.52558,450.65822 L 280.83808,444.72072 z M 138.96308,455.34572 L 139.58808,462.84572 L 164.27558,458.47072 L 138.96308,455.34572 z M 172.08808,505.34572 L 150.21308,515.03322 L 153.96308,519.40822 L 172.08808,505.34572 z "
     id="path1595" />
  <path
     style="fill:url(#linearGradient7222);fill-opacity:1.0000000;fill-rule:evenodd;stroke:none;stroke-width:1.0000000pt;stroke-linecap:butt;stroke-linejoin:miter;stroke-opacity:1.0000000;"
     d="M 332.78315,136.39358 C 334.40653,136.39358 335.99215,136.05487 337.18644,136.05487 C 338.38074,136.05487 340.04868,136.05487 341.25101,136.05487 C 342.45335,136.05487 342.26077,137.16426 343.28330,138.76458 C 344.30583,140.36490 342.72537,141.86718 342.26716,142.49044 C 341.80895,143.11370 339.60488,144.54817 339.21872,144.86144 C 338.83256,145.17472 336.34939,147.52371 336.17029,147.90987 C 335.99118,148.29604 334.44129,150.45988 333.46058,150.95830 C 332.47987,151.45673 333.31515,154.27375 333.79929,154.34545 C 334.28343,154.41715 336.00021,156.00099 337.18644,156.37774 C 338.37268,156.75448 339.84727,157.72838 340.91230,158.07131 C 341.97734,158.41424 341.58973,159.91549 341.58973,160.78102 C 341.58973,161.64655 342.86962,163.71256 343.28330,164.16817 C 343.69698,164.62378 345.62939,166.18417 345.99301,166.53917 C 346.35663,166.89416 348.31582,167.92321 348.70273,168.57146 C 349.08964,169.21971 351.34890,168.91017 352.42859,168.91017 C 353.50828,168.91017 358.72796,166.53917 359.88031,166.53917 C 361.03266,166.53917 363.50254,165.60591 364.28360,166.20046 C 365.06467,166.79500 362.16006,168.42347 361.57388,168.91017 C 360.98770,169.39687 355.69662,172.97752 354.79959,173.31346 C 353.90256,173.64939 351.60468,174.66832 350.39630,174.66832 C 349.18793,174.66832 348.29306,176.36189 345.65430,176.36189 C 343.01554,176.36189 343.73723,178.47107 343.96073,179.07161 C 344.18423,179.67215 345.85278,181.21910 346.33173,181.44261 C 346.81068,181.66612 351.43700,184.67090 352.05543,185.32060 C 352.67386,185.97030 347.99706,189.77101 347.68659,190.92661 C 347.37612,192.08221 351.14429,196.03778 350.73502,196.68476 C 350.32575,197.33174 348.32798,199.60574 348.70273,200.07190 C 349.07748,200.53806 356.23036,203.21081 356.83188,204.81391 C 357.43340,206.41701 362.96323,208.87848 365.63845,208.87848 C 368.31367,208.87848 368.47439,210.59208 367.67074,211.24948 C 366.86709,211.90688 354.25687,217.00763 353.44473,217.00763 C 352.63259,217.00763 350.58165,219.33043 351.41245,219.71734 C 352.24325,220.10425 355.11917,221.14954 356.15445,221.74963 C 357.18973,222.34973 359.20288,227.09825 359.20288,228.86263 C 359.20288,230.62701 362.56343,231.52351 363.26745,232.24978 C 363.97148,232.97605 363.60800,243.97639 362.92874,246.13707 C 362.24949,248.29775 362.92874,249.76746 362.92874,251.21779 C 362.92874,252.66812 363.47769,254.26622 364.96102,254.26622 C 366.44435,254.26622 368.34817,254.87204 368.34817,252.91136 C 368.34817,250.95068 368.72016,249.42805 369.02560,248.50807 C 369.33104,247.58809 370.71917,235.79841 370.71917,235.29821 C 370.71917,234.79801 372.26449,231.75949 372.41274,231.57235 C 372.56099,231.38521 370.09889,228.36288 369.70303,227.50778 C 369.30718,226.65268 370.78626,224.17420 371.73531,223.78192 C 372.68436,223.38965 373.76760,222.19116 373.76760,220.39477 C 373.76760,218.59838 377.20863,213.52451 378.50960,213.28177 C 379.81057,213.03903 382.57418,211.33379 382.57418,209.89462 C 382.57418,208.45545 384.47874,204.81391 383.59032,204.81391 C 382.70191,204.81391 380.21120,203.12033 378.84832,203.12033 C 377.48545,203.12033 367.12215,200.89441 368.00945,199.39447 C 368.89675,197.89453 373.67465,197.49269 376.47732,197.02347 C 379.27999,196.55425 386.30004,195.42150 386.30004,192.62019 C 386.30004,189.81888 383.89105,190.25331 382.23546,189.57176 C 380.57987,188.89021 378.10490,186.99927 377.15475,186.52332 C 376.20460,186.04737 377.98987,186.50241 380.36751,183.62703 C 382.74515,180.75165 378.84832,180.41052 378.84832,178.73289 C 378.84832,177.05526 374.63641,177.49007 376.13860,175.00703 C 377.64079,172.52399 380.40406,172.76879 379.49131,169.97296 C 378.57856,167.17713 373.81165,166.78978 374.44503,165.52303 C 375.07841,164.25627 383.17805,161.95402 376.47732,159.76488 C 369.77659,157.57574 377.37630,156.13592 381.89675,151.97445 C 386.41720,147.81298 387.03390,149.79995 384.60646,148.92602 C 382.17902,148.05208 379.29995,145.73302 380.20318,143.50659 C 381.10641,141.28015 383.33075,138.16282 385.96132,136.73230 C 388.59189,135.30178 389.32795,130.90513 390.02590,129.28058 C 390.72385,127.65603 394.73497,130.39653 395.36423,127.49372 C 395.99349,124.59090 390.62025,120.66316 390.37465,117.16795 C 390.12905,113.67274 395.06229,115.28335 395.78404,115.05457 C 396.50579,114.82579 398.04403,112.51363 399.17119,112.00614 C 400.29835,111.49865 401.39348,108.90816 402.21962,108.28028 C 403.04576,107.65241 400.71256,104.70647 399.84861,104.21571 C 398.98466,103.72495 395.44911,101.77947 393.75175,101.16728 C 392.05439,100.55508 389.60536,99.473700 387.65489,99.473700 C 385.70442,99.473700 383.20311,99.473700 380.88060,99.473700 C 378.55809,99.473700 375.44128,99.812420 373.42889,99.812420 C 371.41650,99.812420 368.84391,99.655390 366.99331,100.15113 C 365.14271,100.64688 361.53643,100.15113 358.86416,100.15113 C 356.19189,100.15113 352.85922,99.134990 350.73502,99.134990 C 348.61082,99.134990 345.93118,98.171090 344.29944,97.780130 C 342.66770,97.389170 341.22119,98.457560 338.88001,98.457560 C 336.53883,98.457560 331.13538,98.178370 330.75086,99.812420 C 330.36635,101.44647 332.55105,101.87030 332.78315,102.18342 C 333.01525,102.49654 337.06115,104.01887 338.54130,104.55442 C 340.02146,105.08998 340.58343,106.43998 342.26716,107.60285 C 343.95089,108.76573 344.94147,108.75695 345.65430,111.32871 C 346.36713,113.90047 338.00789,117.76152 335.83158,118.44172 C 333.65527,119.12192 328.49778,119.85529 328.04115,120.81272 C 327.58452,121.77015 327.02500,124.04396 327.02500,125.89343 C 327.02500,127.74290 327.36372,129.88049 327.36372,131.65158 C 327.36372,133.42267 331.15977,136.39358 332.78315,136.39358 z "
     id="path4731"
     sodipodi:nodetypes="czzzzzzzzzzzzzzzzzzzzzzzzzzzzzzzzzzzzzzzzzzzzzzzzzzzzzzzzzzzzzzzzzzzzzzzzzzzzzzzzzzzzzzzzzz" />
</svg>
